<svg id="Layer_x0020_1" xmlns="http://www.w3.org/2000/svg" width="80" height="80" viewBox="0 0 80 80">
  <path id="Path_1" data-name="Path 1" d="M79.655,9.579a29.738,29.738,0,0,1-8.093,2.8c1.29-.285,3.206-3.132,3.988-4.27a19.1,19.1,0,0,0,2.7-5.931.5.5,0,0,0,0-.522c-.156-.095-.274-.047-.43.047a37.685,37.685,0,0,1-9.578,4.46.553.553,0,0,1-.665-.237,10.014,10.014,0,0,0-.821-1.044A16.578,16.578,0,0,0,62.1,1.418,13.762,13.762,0,0,0,54.986.042a15,15,0,0,0-6.764,2.325,18.927,18.927,0,0,0-5.473,5.409A22.742,22.742,0,0,0,39.5,15.7a26.034,26.034,0,0,0-.156,8.351c.039.474,0,.522-.313.474C25.86,22.153,14.952,16.412,6.078,4.17c-.391-.522-.586-.522-.9.047-3.87,7.07-1.994,18.41,2.854,23.962.665.759,1.29,1.471,2.033,2.183a15.014,15.014,0,0,1-6.373-2.183c-.391-.285-.586-.142-.626.427a11.3,11.3,0,0,0,.117,2.278c.743,7.165,4.809,13.76,10.4,16.37a11.615,11.615,0,0,0,2.111.807c-1.29.332-2.58.569-6.255.237-.469-.095-.626.19-.469.712,2.737,9.063,8.679,11.767,13.1,13.333.586.142,1.173.142,1.8.285-.039.047-.078.047-.117.142-1.486,2.7-6.568,4.745-8.953,5.741A26.47,26.47,0,0,1,1.191,70.6c-.743-.142-.9-.142-1.095,0s-.039.38.2.617c.938.759,1.877,1.423,2.815,2.04a40.287,40.287,0,0,0,9.07,4.413c16.342,5.457,34.717,1.471,46.993-13.333C68.787,52.71,72.188,36.72,72.188,20.682c0-.617.626-1,.977-1.329a36.959,36.959,0,0,0,6.412-8.066,2.725,2.725,0,0,0,.43-1.566V9.627c0-.237,0-.19-.313,0Z" transform="translate(-0.007 -0.001)" fill="#f2be22"/>
</svg>
